<?xml version="1.0" standalone="no"?>
<!DOCTYPE svg PUBLIC "-//W3C//DTD SVG 1.1//EN" "http://www.w3.org/Graphics/SVG/1.1/DTD/svg11.dtd" >
<svg xmlns="http://www.w3.org/2000/svg" xmlns:xlink="http://www.w3.org/1999/xlink" version="1.1">
<metadata></metadata>
<defs>
<font id="made_in_chinaregular" horiz-adv-x="2048" >
<font-face units-per-em="2048" ascent="1638" descent="-410" />
<missing-glyph horiz-adv-x="581" />
<glyph horiz-adv-x="0" />
<glyph unicode="&#xd;" horiz-adv-x="581" />
<glyph unicode=" "  horiz-adv-x="581" />
<glyph unicode="&#x09;" horiz-adv-x="581" />
<glyph unicode="&#xa0;" horiz-adv-x="581" />
<glyph unicode="!" horiz-adv-x="1996" d="M109 535q92 45 118 100q98 203 287 203v2q33 0 98.5 -2t98.5 -2q125 0 176 20q76 31 123 125q43 -84 106 -117q55 -29 156 -28q39 0 117.5 2t117.5 2v-2q115 0 185 -62q53 -45 102 -141q31 -61 117 -100q-68 -29 -123 -111q-76 -115 -92 -131q-66 -63 -178 -64h-101 l-98 2q-125 2 -184 -18q-82 -29 -125 -127q-45 100 -131 129q-55 18 -189 18q-27 0 -78 -2t-77 -2q-203 0 -287 154q-25 45 -51 92q-27 31 -88 60zM440 362q35 -31 88 -30q37 -1 78 30v349h-55v-324h-55v324h-56v-349zM657 662h56v-324h55v324h55v49h-166v-49zM874 362 q35 -31 89 -30q36 -1 77 30v324q-33 31 -84 31t-82 -31v-324zM930 387v275h55v-275h-55zM1092 338h55v98h63l47 49v201q-39 25 -79 25h-86v-373zM1147 487v175h55v-175h-55zM1321 338h55v373h-55v-373zM1440 336h57v100h55v-100h56v350q-31 29 -82 29q-57 0 -86 -29v-350z M1497 487v175q6 6 23 6h8q14 0 24 -6v-175h-55z" />
<glyph unicode="&#x22;" horiz-adv-x="1996" d="M109 535q92 45 118 100q98 203 287 203v2q33 0 98.5 -2t98.5 -2q125 0 176 20q76 31 123 125q43 -84 106 -117q55 -29 156 -28q39 0 117.5 2t117.5 2v-2q115 0 185 -62q53 -45 102 -141q31 -61 117 -100q-68 -29 -123 -111q-76 -115 -92 -131q-66 -63 -178 -64h-101 l-98 2q-125 2 -184 -18q-82 -29 -125 -127q-45 100 -131 129q-55 18 -189 18q-27 0 -78 -2t-77 -2q-203 0 -287 154q-25 45 -51 92q-27 31 -88 60zM440 362q35 -31 88 -30q37 -1 78 30v349h-55v-324h-55v324h-56v-349zM657 662h56v-324h55v324h55v49h-166v-49zM874 362 q35 -31 89 -30q36 -1 77 30v324q-33 31 -84 31t-82 -31v-324zM930 387v275h55v-275h-55zM1092 338h55v98h63l47 49v201q-39 25 -79 25h-86v-373zM1147 487v175h55v-175h-55zM1321 338h55v373h-55v-373zM1440 336h57v100h55v-100h56v350q-31 29 -82 29q-57 0 -86 -29v-350z M1497 487v175q6 6 23 6h8q14 0 24 -6v-175h-55z" />
<glyph unicode="#" horiz-adv-x="4390" d="M66 780v37h389q139 -252 293 -448q6 -8 231 -273v721l221 -10v-936q20 -10 45 -12q18 -2 48 2t42 4q23 0 45 4l11 -123q-84 -20 -156 -20q-199 0 -381 178q-227 223 -424 538v-462l-223 -21v711q-72 10 -94 22q-47 25 -47 88zM1303 154v663h628v144l203 20l-2 -313h-606 v-529h608v-424q-92 0 -152 90q-51 80 -51 177v8h-467q-23 0 -51.5 23.5t-52.5 45.5q-57 45 -57 95zM1585 483v17h672v850q70 2 162 -123q61 -86 61 -226v-184h750l2 -336q0 -66 -48.5 -109.5t-113.5 -43.5h-268q45 -223 278 -369q154 -96 322 -96q37 0 67 6l11 -123 q-90 -23 -189 -22q-229 0 -407.5 119.5t-262.5 332.5l-32 78q-12 31 -15 74h-94v-817l-223 -25v844h-510q-66 0 -114 44t-48 109zM2480 498h526v170h-526v-170zM3330 154l2 663h365v144l202 20l-2 -164h367l2 -663q0 -63 -49.5 -108.5t-112.5 -45.5h-612q-63 0 -112.5 45 t-49.5 109zM3553 150h488v518h-488v-518z" />
<glyph unicode="$" horiz-adv-x="1032" d="M2 500v317h690v82l203 21v-250l-670 -2v-148h693q2 -47 2 -92q0 -520 -482 -520q-176 0 -426 67l64 152q229 -37 336 -37q143 0 211 55q76 61 75 205l-522 2q-57 0 -110 35q-63 43 -64 113zM358 -201v1205h177v-1205h-177z" />
<glyph unicode="%" horiz-adv-x="1996" d="M109 535q92 45 118 100q98 203 287 203v2q33 0 98.5 -2t98.5 -2q125 0 176 20q76 31 123 125q43 -84 106 -117q55 -29 156 -28q39 0 117.5 2t117.5 2v-2q115 0 185 -62q53 -45 102 -141q31 -61 117 -100q-68 -29 -123 -111q-76 -115 -92 -131q-66 -63 -178 -64h-101 l-98 2q-125 2 -184 -18q-82 -29 -125 -127q-45 100 -131 129q-55 18 -189 18q-27 0 -78 -2t-77 -2q-203 0 -287 154q-25 45 -51 92q-27 31 -88 60zM440 362q35 -31 88 -30q37 -1 78 30v349h-55v-324h-55v324h-56v-349zM657 662h56v-324h55v324h55v49h-166v-49zM874 362 q35 -31 89 -30q36 -1 77 30v324q-33 31 -84 31t-82 -31v-324zM930 387v275h55v-275h-55zM1092 338h55v98h63l47 49v201q-39 25 -79 25h-86v-373zM1147 487v175h55v-175h-55zM1321 338h55v373h-55v-373zM1440 336h57v100h55v-100h56v350q-31 29 -82 29q-57 0 -86 -29v-350z M1497 487v175q6 6 23 6h8q14 0 24 -6v-175h-55z" />
<glyph unicode="&#x26;" horiz-adv-x="1996" d="M109 535q92 45 118 100q98 203 287 203v2q33 0 98.5 -2t98.5 -2q125 0 176 20q76 31 123 125q43 -84 106 -117q55 -29 156 -28q39 0 117.5 2t117.5 2v-2q106 0 176 -54q57 -45 111 -149q31 -61 117 -100q-68 -29 -123 -111q-76 -115 -92 -131q-66 -63 -178 -64h-101 l-98 2q-125 2 -184 -18q-82 -29 -125 -127q-45 100 -131 129q-55 18 -189 18q-27 0 -78 -2t-77 -2q-203 0 -287 154q-25 45 -51 92q-27 31 -88 60zM440 362q35 -31 88 -30q37 -1 78 30v349h-55v-324h-55v324h-56v-349zM657 662h56v-324h55v324h55v49h-166v-49zM874 362 q35 -31 89 -30q36 -1 77 30v324q-33 31 -84 31t-82 -31v-324zM930 387v275h55v-275h-55zM1092 338h55v98h63l47 49v201q-39 25 -79 25h-86v-373zM1147 487v175h55v-175h-55zM1321 338h55v373h-55v-373zM1440 336h57v100h55v-100h56v350q-31 29 -82 29q-57 0 -86 -29v-350z M1497 487v175q6 6 23 6h8q14 0 24 -6v-175h-55z" />
<glyph unicode="'" horiz-adv-x="327" d="M-6 883q106 -31 143 -191h39q35 160 35 199q0 63 -35 121h-182v-129z" />
<glyph unicode="(" horiz-adv-x="415" d="M-4 225q0 -174 102.5 -291.5t270.5 -117.5h39v164h-39q-94 0 -125 79q-20 51 -21 179v352q0 127 21 178q31 80 125 80h39v164h-39q-172 0 -272.5 -109.5t-100.5 -288.5v-389z" />
<glyph unicode=")" horiz-adv-x="532" d="M-4 -20h39q94 0 127 79q18 51 18 179v352q0 127 -18 178q-33 80 -127 80h-39v164h39q172 0 272.5 -109.5t100.5 -288.5v-389q0 -174 -99 -291q-104 -119 -274 -118h-39v164z" />
<glyph unicode="*" horiz-adv-x="1996" d="M109 535q92 45 118 100q98 203 287 203v2q33 0 98.5 -2t98.5 -2q125 0 176 20q76 31 123 125q43 -84 106 -117q55 -29 156 -28q39 0 117.5 2t117.5 2v-2q106 0 176 -54q57 -45 111 -149q31 -61 117 -100q-68 -29 -123 -111q-76 -115 -92 -131q-66 -63 -178 -64h-101 l-98 2q-125 2 -184 -18q-82 -29 -125 -127q-45 100 -131 129q-55 18 -189 18q-27 0 -78 -2t-77 -2q-203 0 -287 154q-25 45 -51 92q-27 31 -88 60zM440 362q35 -31 88 -30q37 -1 78 30v349h-55v-324h-55v324h-56v-349zM657 662h56v-324h55v324h55v49h-166v-49zM874 362 q35 -31 89 -30q36 -1 77 30v324q-33 31 -84 31t-82 -31v-324zM930 387v275h55v-275h-55zM1092 338h55v98h63l47 49v201q-39 25 -79 25h-86v-373zM1147 487v175h55v-175h-55zM1321 338h55v373h-55v-373zM1440 336h57v100h55v-100h56v350q-31 29 -82 29q-57 0 -86 -29v-350z M1497 487v175q6 6 23 6h8q14 0 24 -6v-175h-55z" />
<glyph unicode="+" horiz-adv-x="1996" d="M109 535q92 45 118 100q98 203 287 203v2q33 0 98.5 -2t98.5 -2q125 0 176 20q76 31 123 125q43 -84 106 -117q55 -29 156 -28q39 0 117.5 2t117.5 2v-2q115 0 185 -62q53 -45 102 -141q31 -61 117 -100q-68 -29 -123 -111q-76 -115 -92 -131q-66 -63 -178 -64h-101 l-98 2q-125 2 -184 -18q-82 -29 -125 -127q-45 100 -131 129q-55 18 -189 18q-27 0 -78 -2t-77 -2q-203 0 -287 154q-25 45 -51 92q-27 31 -88 60zM440 362q35 -31 88 -30q37 -1 78 30v349h-55v-324h-55v324h-56v-349zM657 662h56v-324h55v324h55v49h-166v-49zM874 362 q35 -31 89 -30q36 -1 77 30v324q-33 31 -84 31t-82 -31v-324zM930 387v275h55v-275h-55zM1092 338h55v98h63l47 49v201q-39 25 -79 25h-86v-373zM1147 487v175h55v-175h-55zM1321 338h55v373h-55v-373zM1440 336h57v100h55v-100h56v350q-31 29 -82 29q-57 0 -86 -29v-350z M1497 487v175q6 6 23 6h8q14 0 24 -6v-175h-55z" />
<glyph unicode="," horiz-adv-x="344" d="M-6 2q106 -31 143 -190h39q35 160 35 198q0 63 -35 121h-182v-129z" />
<glyph unicode="-" horiz-adv-x="839" d="M20 350v170h687v-16q0 -72 -58 -117q-49 -37 -104 -37h-525z" />
<glyph unicode="." horiz-adv-x="337" d="M-6 2v129h203v-129h-203z" />
<glyph unicode="/" horiz-adv-x="577" d="M-6 -162h203l327 1174h-202z" />
<glyph unicode="0" horiz-adv-x="1064" d="M4 152v673h367v74l202 21l-2 -95h367l2 -673q0 -72 -57 -115q-49 -39 -107 -39h-610q-55 0 -105 39q-57 43 -57 115zM227 147h488v529h-488v-529zM371 348v150h200v-150h-200z" />
<glyph unicode="1" horiz-adv-x="354" d="M0 0v823h223l-2 -823h-221z" />
<glyph unicode="2" horiz-adv-x="1013" d="M-2 428q0 45 4 92h690v148l-669 2l2 147l323 8v74l203 21v-95l364 -8v-317q0 -70 -63 -113q-51 -35 -111 -35l-520 -2q-2 -143 74 -205q68 -55 211 -55q106 0 336 37l65 -152q-252 -68 -428 -67q-481 0 -481 520z" />
<glyph unicode="3" horiz-adv-x="1093" d="M0 0q289 -80 487 -80q451 0 451 406q0 35 -4 73q43 43 41 103l-2 315l-402 8l2 95l-202 -21v-74l-371 -8v-149h752v-150h-547v-170h493q4 -29 4 -53q0 -115 -107.5 -165t-342.5 -50q-106 0 -252 10v-90z" />
<glyph unicode="4" horiz-adv-x="1236" d="M-4 485l2 342l221 2l2 -327l451 2l2 319l223 -2v-317h250v-178h-250v-326h-227l-2 326l-510 6q-55 0 -105 39q-57 43 -57 114z" />
<glyph unicode="5" horiz-adv-x="1075" d="M0 0v90q145 -10 252 -10q236 0 343 50t107 165q0 25 -4 53h-698v62v383v24l371 8v74l202 21l-2 -95l402 -8l2 -149h-768v-150h747q8 -63 9 -121q0 -467 -512 -467q-197 0 -451 70z" />
<glyph unicode="6" horiz-adv-x="1069" d="M-2 508q-2 182 130 281.5t368 99.5q188 0 417 -64l-63 -151q-238 37 -354 37q-272 0 -273 -203h748l2 -350q0 -70 -58 -115q-47 -39 -104 -39l-645 -4q-55 0 -105 37q-57 45 -57 117zM221 174h527v184h-527v-184z" />
<glyph unicode="7" horiz-adv-x="991" d="M29 666v157l891 -2l2 -155q-219 -51 -377 -318q-133 -225 -133 -405h-219q0 190 101 396t263 327h-528z" />
<glyph unicode="8" horiz-adv-x="1175" d="M8 502l2 315l422 8v74l203 21l-2 -95l422 -8l4 -315q0 -59 -43 -103q4 -39 4 -73q0 -418 -479 -406q-494 -12 -494 410q0 33 2 69q-41 43 -41 103zM233 518h601v150h-601v-150zM281 285q0 -184 243 -195q260 10 260 199q0 28 -4 59h-493q-6 -35 -6 -63z" />
<glyph unicode="9" horiz-adv-x="1161" d="M-4 485l2 342l414 -2v74l202 21l-2 -95l428 -4l-2 -495q0 -205 -184 -301q-150 -80 -401 -80q-137 0 -279 24l10 144q96 -8 181 -9q446 0 446 222l-653 6q-55 0 -105 39q-57 43 -57 114zM221 502l594 2l2 180h-596v-182z" />
<glyph unicode=":" horiz-adv-x="325" d="M-6 2v129h203v-129h-203zM-6 473v129h203v-129h-203z" />
<glyph unicode=";" horiz-adv-x="321" d="M-6 2q63 -18 92 -80q10 -23 31 -110h39q35 160 34 198q0 63 -34 121h-162v-129zM-6 473v129h203v-129h-203z" />
<glyph unicode="&#x3c;" horiz-adv-x="415" d="M-4 225q0 -174 102.5 -291.5t270.5 -117.5h39v164h-39q-94 0 -125 79q-20 51 -21 179v352q0 127 21 178q31 80 125 80h39v164h-39q-172 0 -272.5 -109.5t-100.5 -288.5v-389z" />
<glyph unicode="=" horiz-adv-x="1996" d="M109 535q92 45 118 100q98 203 287 203v2q33 0 98.5 -2t98.5 -2q125 0 176 20q76 31 123 125q43 -84 106 -117q55 -29 156 -28q39 0 117.5 2t117.5 2v-2q115 0 185 -62q53 -45 102 -141q31 -61 117 -100q-68 -29 -123 -111q-76 -115 -92 -131q-66 -63 -178 -64h-101 l-98 2q-125 2 -184 -18q-82 -29 -125 -127q-45 100 -131 129q-55 18 -189 18q-27 0 -78 -2t-77 -2q-203 0 -287 154q-25 45 -51 92q-27 31 -88 60zM440 362q35 -31 88 -30q37 -1 78 30v349h-55v-324h-55v324h-56v-349zM657 662h56v-324h55v324h55v49h-166v-49zM874 362 q35 -31 89 -30q36 -1 77 30v324q-33 31 -84 31t-82 -31v-324zM930 387v275h55v-275h-55zM1092 338h55v98h63l47 49v201q-39 25 -79 25h-86v-373zM1147 487v175h55v-175h-55zM1321 338h55v373h-55v-373zM1440 336h57v100h55v-100h56v350q-31 29 -82 29q-57 0 -86 -29v-350z M1497 487v175q6 6 23 6h8q14 0 24 -6v-175h-55z" />
<glyph unicode="&#x3e;" horiz-adv-x="532" d="M-4 -20h39q94 0 127 79q18 51 18 179v352q0 127 -18 178q-33 80 -127 80h-39v164h39q172 0 272.5 -109.5t100.5 -288.5v-389q0 -174 -99 -291q-104 -119 -274 -118h-39v164z" />
<glyph unicode="?" horiz-adv-x="1996" d="M109 535q92 45 118 100q98 203 287 203v2q33 0 98.5 -2t98.5 -2q125 0 176 20q76 31 123 125q43 -84 106 -117q55 -29 156 -28q39 0 117.5 2t117.5 2v-2q115 0 185 -62q53 -45 102 -141q31 -61 117 -100q-68 -29 -123 -111q-76 -115 -92 -131q-66 -63 -178 -64h-101 l-98 2q-125 2 -184 -18q-82 -29 -125 -127q-45 100 -131 129q-55 18 -189 18q-27 0 -78 -2t-77 -2q-203 0 -287 154q-25 45 -51 92q-27 31 -88 60zM440 362q35 -31 88 -30q37 -1 78 30v349h-55v-324h-55v324h-56v-349zM657 662h56v-324h55v324h55v49h-166v-49zM874 362 q35 -31 89 -30q36 -1 77 30v324q-33 31 -84 31t-82 -31v-324zM930 387v275h55v-275h-55zM1092 338h55v98h63l47 49v201q-39 25 -79 25h-86v-373zM1147 487v175h55v-175h-55zM1321 338h55v373h-55v-373zM1440 336h57v100h55v-100h56v350q-31 29 -82 29q-57 0 -86 -29v-350z M1497 487v175q6 6 23 6h8q14 0 24 -6v-175h-55z" />
<glyph unicode="@" horiz-adv-x="4575" d="M-115 500h455v338h1632v204l203 21l-2 -375h-1610v-188h604v-17q0 -66 -48 -109.5t-113 -43.5h-443v-344l-223 24v320h-410zM795 -485q0 291 364 426q254 94 604 94q89 0 181 -6v149l-490 6q-63 0 -112.5 45t-49.5 109l2 295l222 2l2 -281l430 2v273l223 -2l-2 -774h-227 v2l-132 2q-385 0 -565 -56q-256 -78 -256 -280q0 -25 4 -53l-170 -115q-29 84 -28 162zM2257 -596v1946q113 2 174 -103q49 -84 49 -205v-225h750l2 -438q0 -66 -48.5 -110t-113.5 -44h-268q8 -45 28 -108q53 -170 197 -260q133 -82 319 -82q66 0 123 12l11 -123 q-160 -39 -295 -39q-418 0 -564 367q-43 106 -47 233h-94v-796zM2480 395h526v273h-526v-273zM3310 154v663h628v82l203 21l-2 -252h-606v-518h608l-45 -150h-625q-63 0 -112 45t-49 109zM3613 483v17h934l-45 -170h-728q-66 0 -113.5 44t-47.5 109z" />
<glyph unicode="A" horiz-adv-x="1136" d="M2 123l2 350h748q0 203 -273 203q-117 0 -352 -37l-66 152q229 63 416 63q236 0 368 -99.5t132 -281.5v-508l-813 4q-55 0 -105 39q-57 45 -57 115zM227 139h527v185h-527v-185z" />
<glyph unicode="B" horiz-adv-x="1095" d="M0 0v817h973l2 -315v-5q0 -56 -41 -98q4 -39 4 -73q0 -406 -451 -406q-199 0 -487 80zM223 104q121 -14 203 -14q279 0 279 195q-1 28 -7 63h-475v-244zM223 518h529v150h-529v-150z" />
<glyph unicode="C" horiz-adv-x="950" d="M2 154v663h690v82l203 21v-250l-670 -2v-518h670l-45 -150h-686q-55 0 -105 39q-57 43 -57 115z" />
<glyph unicode="D" horiz-adv-x="1103" d="M0 -4v823q147 -63 545 -63q129 0 225 12v172l203 21l2 -809q0 -72 -57 -115q-47 -39 -105 -39zM223 168h543v432h-20q-39 0 -130 -4q-137 -8 -208 -8q-127 0 -185 18v-438z" />
<glyph unicode="E" horiz-adv-x="1013" d="M2 154v663h690v82l203 21v-250l-670 -2v-148h686v-16q0 -72 -57 -117q-49 -37 -104 -37h-525v-200h670l-45 -150h-686q-55 0 -105 39q-57 43 -57 115z" />
<glyph unicode="F" horiz-adv-x="958" d="M0 -4v827h690v82l203 21v-250l-670 -2v-148h686v-16q0 -72 -57 -117q-49 -37 -104 -37h-525v-372z" />
<glyph unicode="G" horiz-adv-x="1060" d="M4 154v663h731v82l203 21l-2 -252h-709v-518l498 2v198h-113q-55 0 -104 37q-57 45 -57 117v16h483l2 -364q0 -72 -57 -115q-49 -39 -105 -39l-608 -2q-55 0 -105 37q-57 45 -57 117z" />
<glyph unicode="H" horiz-adv-x="1114" d="M-121 788v37h367l-2 -301q242 -29 551 -37v338h200l11 -825h-211v340q-94 -25 -226 -25q-135 0 -325 25v-332l-224 -20v710q-47 6 -94 13q-47 18 -47 77z" />
<glyph unicode="I" horiz-adv-x="354" d="M0 0v823h223l-2 -823h-221z" />
<glyph unicode="J" horiz-adv-x="995" d="M8 -31l12 144q61 -6 127 -7q203 0 332 48q168 61 172 196l6 355l-251 -3q-47 6 -95 13q-49 18 -49 78v36l612 -2l-2 -501q0 -205 -184 -301q-150 -80 -399 -80q-139 0 -281 24z" />
<glyph unicode="K" horiz-adv-x="1083" d="M0 0v819h223v-203h529v203h221l2 -219q2 -70 -55 -115q-49 -39 -107 -39h-268q0 -147 135 -227q104 -65 240 -65h4q25 0 43 2l12 -142q-49 -8 -107 -8q-217 0 -368 92q-185 117 -185 341v7h-96v-446h-223z" />
<glyph unicode="L" horiz-adv-x="913" d="M-143 778v37l366 2l2 -667h670l-45 -150h-684q-57 0 -105 39q-57 43 -59 115l-4 534l-94 12q-47 18 -47 78z" />
<glyph unicode="M" horiz-adv-x="1431" d="M-141 788v37l366 2q86 -39 172 -75q121 -45 246 -45q199 0 442 110h224l-2 -817h-222v639q-152 -90 -329 -102l-2 -560l-222 -67v627q-166 12 -307 90l-2 -619l-223 -20v710q-47 6 -94 13q-47 18 -47 77z" />
<glyph unicode="N" horiz-adv-x="1163" d="M-141 788v37h389q227 -414 524 -762v762h201v-833q29 -6 35 -4q33 10 43 12l10 -123q-74 -14 -131 -14q-160 0 -307 129q-166 145 -400 520v-504l-223 -20v710q-47 6 -94 13q-47 18 -47 77z" />
<glyph unicode="O" horiz-adv-x="1064" d="M4 152l2 673h365v74l202 21l-2 -95h367l2 -673q0 -72 -57 -115q-49 -39 -105 -39h-612q-55 0 -105 39q-57 43 -57 115zM227 147h488v529h-488v-529z" />
<glyph unicode="P" horiz-adv-x="1046" d="M0 0v817h973l2 -315q2 -70 -55 -115q-49 -39 -107 -39h-590v-348h-223zM223 518h529v150h-529v-150z" />
<glyph unicode="Q" horiz-adv-x="1169" d="M4 152l2 673h1034l2 -673q0 -72 -57 -115q-49 -39 -104 -39h-254q4 -121 59 -170q47 -45 152 -45q31 0 67 4l29 -102q-74 -12 -139 -13q-166 0 -262.5 81t-96.5 239v6h-270q-55 0 -105 39q-57 43 -57 115zM227 147h209l-2 271l193 2v-273h190v529h-590v-529z" />
<glyph unicode="R" horiz-adv-x="1089" d="M0 0v817h973l2 -315q2 -70 -55 -115q-49 -39 -107 -39h-268q0 -203 270 -203q55 0 152 11l12 -142q-117 -18 -215 -18q-445 0 -445 343v9h-96v-348h-223zM223 518h529v150h-529v-150z" />
<glyph unicode="S" horiz-adv-x="1034" d="M2 500v317h690v82l203 21v-250l-670 -2v-148h693q2 -47 2 -92q0 -520 -482 -520q-176 0 -426 67l64 152q229 -37 336 -37q143 0 211 55q76 61 75 205l-522 2q-57 0 -110 35q-63 43 -64 113z" />
<glyph unicode="T" horiz-adv-x="1042" d="M2 817h772v82l203 21v-250h-393v-670h-226v668h-348z" />
<glyph unicode="U" horiz-adv-x="1062" d="M-141 788v37l366 2l-2 -647q51 -27 101 -51q82 -37 155 -37q119 0 238 90v635h223l-2 -731q-248 -160 -457 -160q-252 0 -481 148v624q-47 6 -94 13q-47 18 -47 77z" />
<glyph unicode="V" horiz-adv-x="1142" d="M0 811q0 -371 268 -666q111 -125 267 -223q147 104 251 232q254 303 254 659h-227v-5q0 -362 -278 -640q-303 279 -304 643h-231z" />
<glyph unicode="W" horiz-adv-x="1429" d="M-141 788v37l366 2l-2 -647q158 -63 309 -80l3 637l221 41v-678q164 16 329 82v635h224l-2 -731q-123 -80 -357 -125q-178 -35 -303 -35q-133 0 -297 29q-227 39 -350 119v624q-47 6 -94 13q-47 18 -47 77z" />
<glyph unicode="X" horiz-adv-x="1050" d="M0 -41q0 397 291 668q-119 64 -242 64q-18 0 -37 -1l-12 135q55 10 115 11q172 0 340 -88q139 78 276 90v82l203 20l-2 -250q-152 -6 -291 -80q274 -262 274 -651l-237 2q0 295 -209 522q-231 -225 -231 -522z" />
<glyph unicode="Y" horiz-adv-x="1161" d="M-4 485l2 342l221 2l2 -327l594 2l2 319l223 -2l-2 -495q0 -205 -184 -301q-150 -80 -401 -80q-137 0 -279 24l10 144q96 -8 181 -9q446 0 446 222l-653 6q-55 0 -105 39q-57 43 -57 114z" />
<glyph unicode="Z" horiz-adv-x="1005" d="M-12 -57q0 174 149 393q135 195 318 330h-426v157l891 -2v-155q-102 -14 -228 -82q-203 -109 -348 -305q-139 -186 -139 -336h-217zM88 -6l62 174h772l-45 -174h-789z" />
<glyph unicode="[" horiz-adv-x="415" d="M-4 225q0 -174 102.5 -291.5t270.5 -117.5h39v164h-39q-94 0 -125 79q-20 51 -21 179v352q0 127 21 178q31 80 125 80h39v164h-39q-172 0 -272.5 -109.5t-100.5 -288.5v-389z" />
<glyph unicode="\" horiz-adv-x="604" d="M-6 1012h203l327 -1174h-202z" />
<glyph unicode="]" horiz-adv-x="532" d="M-4 -20h39q94 0 127 79q18 51 18 179v352q0 127 -18 178q-33 80 -127 80h-39v164h39q172 0 272.5 -109.5t100.5 -288.5v-389q0 -174 -99 -291q-104 -119 -274 -118h-39v164z" />
<glyph unicode="^" horiz-adv-x="1996" d="M109 535q92 45 118 100q98 203 287 203v2q33 0 98.5 -2t98.5 -2q125 0 176 20q76 31 123 125q43 -84 106 -117q55 -29 156 -28q39 0 117.5 2t117.5 2v-2q115 0 185 -62q53 -45 102 -141q31 -61 117 -100q-68 -29 -123 -111q-76 -115 -92 -131q-66 -63 -178 -64h-101 l-98 2q-125 2 -184 -18q-82 -29 -125 -127q-45 100 -131 129q-55 18 -189 18q-27 0 -78 -2t-77 -2q-203 0 -287 154q-25 45 -51 92q-27 31 -88 60zM440 362q35 -31 88 -30q37 -1 78 30v349h-55v-324h-55v324h-56v-349zM657 662h56v-324h55v324h55v49h-166v-49zM874 362 q35 -31 89 -30q36 -1 77 30v324q-33 31 -84 31t-82 -31v-324zM930 387v275h55v-275h-55zM1092 338h55v98h63l47 49v201q-39 25 -79 25h-86v-373zM1147 487v175h55v-175h-55zM1321 338h55v373h-55v-373zM1440 336h57v100h55v-100h56v350q-31 29 -82 29q-57 0 -86 -29v-350z M1497 487v175q6 6 23 6h8q14 0 24 -6v-175h-55z" />
<glyph unicode="_" horiz-adv-x="1996" d="M109 535q92 45 118 100q98 203 287 203v2q33 0 98.5 -2t98.5 -2q125 0 176 20q76 31 123 125q43 -84 106 -117q55 -29 156 -28q39 0 117.5 2t117.5 2v-2q115 0 185 -62q53 -45 102 -141q31 -61 117 -100q-68 -29 -123 -111q-76 -115 -92 -131q-66 -63 -178 -64h-101 l-98 2q-125 2 -184 -18q-82 -29 -125 -127q-45 100 -131 129q-55 18 -189 18q-27 0 -78 -2t-77 -2q-203 0 -287 154q-25 45 -51 92q-27 31 -88 60zM440 362q35 -31 88 -30q37 -1 78 30v349h-55v-324h-55v324h-56v-349zM657 662h56v-324h55v324h55v49h-166v-49zM874 362 q35 -31 89 -30q36 -1 77 30v324q-33 31 -84 31t-82 -31v-324zM930 387v275h55v-275h-55zM1092 338h55v98h63l47 49v201q-39 25 -79 25h-86v-373zM1147 487v175h55v-175h-55zM1321 338h55v373h-55v-373zM1440 336h57v100h55v-100h56v350q-31 29 -82 29q-57 0 -86 -29v-350z M1497 487v175q6 6 23 6h8q14 0 24 -6v-175h-55z" />
<glyph unicode="`" horiz-adv-x="1996" d="M109 535q92 45 118 100q98 203 287 203v2q33 0 98.5 -2t98.5 -2q125 0 176 20q76 31 123 125q43 -84 106 -117q55 -29 156 -28q39 0 117.5 2t117.5 2v-2q115 0 185 -62q53 -45 102 -141q31 -61 117 -100q-68 -29 -123 -111q-76 -115 -92 -131q-66 -63 -178 -64h-101 l-98 2q-125 2 -184 -18q-82 -29 -125 -127q-45 100 -131 129q-55 18 -189 18q-27 0 -78 -2t-77 -2q-203 0 -287 154q-25 45 -51 92q-27 31 -88 60zM440 362q35 -31 88 -30q37 -1 78 30v349h-55v-324h-55v324h-56v-349zM657 662h56v-324h55v324h55v49h-166v-49zM874 362 q35 -31 89 -30q36 -1 77 30v324q-33 31 -84 31t-82 -31v-324zM930 387v275h55v-275h-55zM1092 338h55v98h63l47 49v201q-39 25 -79 25h-86v-373zM1147 487v175h55v-175h-55zM1321 338h55v373h-55v-373zM1440 336h57v100h55v-100h56v350q-31 29 -82 29q-57 0 -86 -29v-350z M1497 487v175q6 6 23 6h8q14 0 24 -6v-175h-55z" />
<glyph unicode="a" horiz-adv-x="1105" d="M-2 158l2 350h748q0 203 -273 203q-117 0 -352 -37l-66 151q229 63 416 64q236 0 368 -99.5t132 -281.5v-508l-813 4q-55 0 -105 39q-57 45 -57 115zM223 174h527v184h-527v-184z" />
<glyph unicode="b" horiz-adv-x="1095" d="M0 0v817h973l2 -315v-5q0 -56 -41 -98q4 -39 4 -73q0 -406 -451 -406q-199 0 -487 80zM223 104q121 -14 203 -14q279 0 279 195q-1 28 -7 63h-475v-244zM223 518h529v150h-529v-150z" />
<glyph unicode="c" horiz-adv-x="950" d="M2 154v663h690v82l203 21v-250l-670 -2v-518h670l-45 -150h-686q-55 0 -105 39q-57 43 -57 115z" />
<glyph unicode="d" horiz-adv-x="1103" d="M0 -4v823q147 -63 545 -63q129 0 225 12v172l203 21l2 -809q0 -72 -57 -115q-47 -39 -105 -39zM223 168h543v432h-20q-39 0 -130 -4q-137 -8 -208 -8q-127 0 -185 18v-438z" />
<glyph unicode="e" horiz-adv-x="1019" d="M2 154v663h690v82l203 21v-250l-670 -2v-148h686v-16q0 -72 -57 -117q-49 -37 -104 -37h-525v-200h670l-45 -150h-686q-55 0 -105 39q-57 43 -57 115z" />
<glyph unicode="f" horiz-adv-x="958" d="M0 -4v827h690v82l203 21v-250l-670 -2v-148h686v-16q0 -72 -57 -117q-49 -37 -104 -37h-525v-372z" />
<glyph unicode="g" horiz-adv-x="1060" d="M4 154v663h731v82l203 21l-2 -252h-709v-518l498 2v198h-113q-55 0 -104 37q-57 45 -57 117v16h483l2 -364q0 -72 -57 -115q-49 -39 -107 -39l-606 -2q-55 0 -105 37q-57 45 -57 117z" />
<glyph unicode="h" horiz-adv-x="1114" d="M-141 788v37h364v-301q242 -29 549 -37v338h203l10 -825h-213v340q-92 -25 -223 -25q-135 0 -326 25v-332l-223 -20v710q-47 6 -94 13q-47 18 -47 77z" />
<glyph unicode="i" horiz-adv-x="382" d="M0 0v817h223l-2 -817h-221z" />
<glyph unicode="j" horiz-adv-x="995" d="M8 -31l12 144q61 -6 127 -7q203 0 332 48q170 61 172 196l6 355l-251 -3q-47 6 -95 13q-47 18 -47 78v36l610 -2l-2 -501q0 -205 -182 -301q-152 -80 -401 -80q-137 0 -281 24z" />
<glyph unicode="k" horiz-adv-x="1083" d="M0 0v819h223v-203h529v203h221l2 -219q2 -70 -55 -115q-49 -39 -107 -39h-268q0 -147 135 -227q104 -65 240 -65h4q25 0 43 2l12 -142q-49 -8 -107 -8q-217 0 -368 92q-185 117 -185 341v7h-96v-446h-223z" />
<glyph unicode="l" horiz-adv-x="915" d="M-143 778v37l366 2l2 -667h670l-45 -150h-684q-57 0 -105 39q-57 43 -59 115l-4 534l-94 12q-47 18 -47 78z" />
<glyph unicode="m" horiz-adv-x="1431" d="M-141 788v37l366 2q86 -39 172 -75q121 -45 246 -45q199 0 442 110h224l-2 -817h-222v639q-152 -90 -329 -102l-2 -560l-222 -67v627q-166 12 -307 90l-2 -619l-223 -20v710q-47 6 -94 13q-47 18 -47 77z" />
<glyph unicode="n" horiz-adv-x="1163" d="M-141 788v37h389q227 -414 524 -762v762h201v-833q29 -6 35 -4q33 10 43 12l10 -123q-74 -14 -131 -14q-160 0 -307 129q-166 145 -400 520v-504l-223 -20v710q-47 6 -94 13q-47 18 -47 77z" />
<glyph unicode="o" horiz-adv-x="1064" d="M4 152l2 673h365v74l202 21l-2 -95h367l2 -673q0 -72 -57 -115q-49 -39 -105 -39h-612q-55 0 -105 39q-57 43 -57 115zM227 147h488v529h-488v-529z" />
<glyph unicode="p" horiz-adv-x="1046" d="M0 0v817h973l2 -315q2 -70 -55 -115q-49 -39 -107 -39h-590v-348h-223zM223 518h529v150h-529v-150z" />
<glyph unicode="q" horiz-adv-x="1163" d="M4 152l2 673h1034l2 -673q0 -72 -57 -115q-49 -39 -104 -39h-254q4 -121 59 -170q47 -45 152 -45q31 0 67 4l29 -102q-74 -12 -139 -13q-166 0 -262.5 81t-96.5 239v6h-270q-55 0 -105 39q-57 43 -57 115zM227 147h209l-2 271l193 2v-273h190v529h-590v-529z" />
<glyph unicode="r" horiz-adv-x="1089" d="M0 0v817h973l2 -315q2 -70 -55 -115q-49 -39 -107 -39h-268q0 -203 270 -203q55 0 152 11l12 -142q-117 -18 -215 -18q-445 0 -445 343v9h-96v-348h-223zM223 518h529v150h-529v-150z" />
<glyph unicode="s" horiz-adv-x="1034" d="M2 500v317h690v82l203 21v-250l-670 -2v-148h693q2 -47 2 -92q0 -520 -482 -520q-176 0 -426 67l64 152q229 -37 336 -37q143 0 211 55q76 61 75 205l-522 2q-57 0 -110 35q-63 43 -64 113z" />
<glyph unicode="t" horiz-adv-x="1046" d="M2 817h772v82l203 21v-250h-393v-670h-226v668h-348z" />
<glyph unicode="u" horiz-adv-x="1062" d="M-141 788v37l366 2l-2 -647q51 -27 101 -51q82 -37 155 -37q119 0 238 90v635h223l-2 -731q-248 -160 -457 -160q-252 0 -481 148v624q-47 6 -94 13q-47 18 -47 77z" />
<glyph unicode="v" horiz-adv-x="1142" d="M0 811q0 -371 268 -666q111 -125 267 -223q147 104 251 232q254 303 254 659h-227v-5q0 -362 -278 -640q-303 279 -304 643h-231z" />
<glyph unicode="w" horiz-adv-x="1429" d="M-141 788v37l366 2l-2 -647q158 -63 309 -80l3 637l221 41v-678q164 16 329 82v635h224l-2 -731q-123 -80 -357 -125q-178 -35 -303 -35q-133 0 -297 29q-227 39 -350 119v624q-47 6 -94 13q-47 18 -47 77z" />
<glyph unicode="x" horiz-adv-x="1050" d="M0 -41q0 397 291 668q-119 64 -242 64q-18 0 -37 -1l-12 135q55 10 115 11q172 0 340 -88q139 78 276 90v82l203 20l-2 -250q-152 -6 -291 -80q274 -262 274 -651l-237 2q0 295 -209 522q-231 -225 -231 -522z" />
<glyph unicode="y" horiz-adv-x="1161" d="M-4 485l2 342l221 2l2 -327l594 2l2 319l223 -2l-2 -495q0 -205 -184 -301q-150 -80 -401 -80q-137 0 -279 24l10 144q96 -8 181 -9q446 0 446 222l-653 6q-55 0 -105 39q-57 43 -57 114z" />
<glyph unicode="z" horiz-adv-x="1005" d="M-12 -57q0 174 151 393q133 195 316 330h-426v157l891 -2l2 -155q-104 -14 -228 -82q-205 -109 -348 -305q-139 -186 -139 -336h-219zM88 -6l62 174h772l-45 -174h-789z" />
<glyph unicode="{" horiz-adv-x="415" d="M-4 225q0 -174 102.5 -291.5t270.5 -117.5h39v164h-39q-94 0 -125 79q-20 51 -21 179v352q0 127 21 178q31 80 125 80h39v164h-39q-172 0 -272.5 -109.5t-100.5 -288.5v-389z" />
<glyph unicode="|" horiz-adv-x="327" d="M-6 -162v1174h203v-1174h-203z" />
<glyph unicode="}" horiz-adv-x="532" d="M-4 -20h39q94 0 127 79q18 51 18 179v352q0 127 -18 178q-33 80 -127 80h-39v164h39q172 0 272.5 -109.5t100.5 -288.5v-389q0 -174 -99 -291q-104 -119 -274 -118h-39v164z" />
<glyph unicode="~" horiz-adv-x="1996" d="M109 535q92 45 118 100q98 203 287 203v2q33 0 98.5 -2t98.5 -2q125 0 176 20q76 31 123 125q43 -84 106 -117q55 -29 156 -28q39 0 117.5 2t117.5 2v-2q115 0 185 -62q53 -45 102 -141q31 -61 117 -100q-68 -29 -123 -111q-76 -115 -92 -131q-66 -63 -178 -64h-101 l-98 2q-125 2 -184 -18q-82 -29 -125 -127q-45 100 -131 129q-55 18 -189 18q-27 0 -78 -2t-77 -2q-203 0 -287 154q-25 45 -51 92q-27 31 -88 60zM440 362q35 -31 88 -30q37 -1 78 30v349h-55v-324h-55v324h-56v-349zM657 662h56v-324h55v324h55v49h-166v-49zM874 362 q35 -31 89 -30q36 -1 77 30v324q-33 31 -84 31t-82 -31v-324zM930 387v275h55v-275h-55zM1092 338h55v98h63l47 49v201q-39 25 -79 25h-86v-373zM1147 487v175h55v-175h-55zM1321 338h55v373h-55v-373zM1440 336h57v100h55v-100h56v350q-31 29 -82 29q-57 0 -86 -29v-350z M1497 487v175q6 6 23 6h8q14 0 24 -6v-175h-55z" />
<glyph unicode="&#xa1;" />
<glyph unicode="&#xa2;" />
<glyph unicode="&#xa3;" />
<glyph unicode="&#xa4;" />
<glyph unicode="&#xa5;" />
<glyph unicode="&#xa6;" />
<glyph unicode="&#xa7;" />
<glyph unicode="&#xa8;" />
<glyph unicode="&#xa9;" />
<glyph unicode="&#xaa;" />
<glyph unicode="&#xab;" />
<glyph unicode="&#xad;" horiz-adv-x="839" d="M20 350v170h687v-16q0 -72 -58 -117q-49 -37 -104 -37h-525z" />
<glyph unicode="&#xae;" />
<glyph unicode="&#xaf;" />
<glyph unicode="&#xb0;" />
<glyph unicode="&#xb1;" />
<glyph unicode="&#xb2;" />
<glyph unicode="&#xb3;" />
<glyph unicode="&#xb4;" />
<glyph unicode="&#xb5;" />
<glyph unicode="&#xb7;" />
<glyph unicode="&#xb8;" />
<glyph unicode="&#xb9;" />
<glyph unicode="&#xbb;" />
<glyph unicode="&#xbc;" />
<glyph unicode="&#xbd;" />
<glyph unicode="&#xbe;" />
<glyph unicode="&#xbf;" />
<glyph unicode="&#xc0;" />
<glyph unicode="&#xc1;" />
<glyph unicode="&#xc2;" />
<glyph unicode="&#xc3;" />
<glyph unicode="&#xc4;" />
<glyph unicode="&#xc5;" />
<glyph unicode="&#xc6;" />
<glyph unicode="&#xc7;" />
<glyph unicode="&#xc8;" />
<glyph unicode="&#xc9;" />
<glyph unicode="&#xcb;" />
<glyph unicode="&#xcc;" />
<glyph unicode="&#xcd;" />
<glyph unicode="&#xce;" />
<glyph unicode="&#xcf;" />
<glyph unicode="&#xd0;" />
<glyph unicode="&#xd1;" />
<glyph unicode="&#xd2;" />
<glyph unicode="&#xd3;" />
<glyph unicode="&#xd4;" />
<glyph unicode="&#xd5;" />
<glyph unicode="&#xd6;" />
<glyph unicode="&#xd7;" />
<glyph unicode="&#xd8;" />
<glyph unicode="&#xd9;" />
<glyph unicode="&#xda;" />
<glyph unicode="&#xdb;" />
<glyph unicode="&#xdc;" />
<glyph unicode="&#xdd;" />
<glyph unicode="&#xde;" />
<glyph unicode="&#xdf;" />
<glyph unicode="&#xe0;" />
<glyph unicode="&#xe1;" />
<glyph unicode="&#xe2;" />
<glyph unicode="&#xe3;" />
<glyph unicode="&#xe4;" />
<glyph unicode="&#xe5;" />
<glyph unicode="&#xe6;" />
<glyph unicode="&#xe7;" />
<glyph unicode="&#xe8;" />
<glyph unicode="&#xe9;" />
<glyph unicode="&#xea;" />
<glyph unicode="&#xeb;" />
<glyph unicode="&#xec;" />
<glyph unicode="&#xed;" />
<glyph unicode="&#xee;" />
<glyph unicode="&#xef;" />
<glyph unicode="&#xf1;" />
<glyph unicode="&#xf2;" />
<glyph unicode="&#xf3;" />
<glyph unicode="&#xf4;" />
<glyph unicode="&#xf5;" />
<glyph unicode="&#xf6;" />
<glyph unicode="&#xf7;" />
<glyph unicode="&#xf8;" />
<glyph unicode="&#xf9;" />
<glyph unicode="&#xfa;" />
<glyph unicode="&#xfb;" />
<glyph unicode="&#xfc;" />
<glyph unicode="&#xfd;" />
<glyph unicode="&#xfe;" />
<glyph unicode="&#xff;" />
<glyph unicode="&#x152;" />
<glyph unicode="&#x153;" />
<glyph unicode="&#x178;" />
<glyph unicode="&#x2c6;" />
<glyph unicode="&#x2dc;" />
<glyph unicode="&#x2000;" horiz-adv-x="682" />
<glyph unicode="&#x2001;" horiz-adv-x="1365" />
<glyph unicode="&#x2002;" horiz-adv-x="682" />
<glyph unicode="&#x2003;" horiz-adv-x="1365" />
<glyph unicode="&#x2004;" horiz-adv-x="455" />
<glyph unicode="&#x2005;" horiz-adv-x="341" />
<glyph unicode="&#x2006;" horiz-adv-x="227" />
<glyph unicode="&#x2007;" horiz-adv-x="227" />
<glyph unicode="&#x2008;" horiz-adv-x="170" />
<glyph unicode="&#x2009;" horiz-adv-x="273" />
<glyph unicode="&#x200a;" horiz-adv-x="75" />
<glyph unicode="&#x2010;" horiz-adv-x="839" d="M20 350v170h687v-16q0 -72 -58 -117q-49 -37 -104 -37h-525z" />
<glyph unicode="&#x2011;" horiz-adv-x="839" d="M20 350v170h687v-16q0 -72 -58 -117q-49 -37 -104 -37h-525z" />
<glyph unicode="&#x2012;" horiz-adv-x="839" d="M20 350v170h687v-16q0 -72 -58 -117q-49 -37 -104 -37h-525z" />
<glyph unicode="&#x2013;" horiz-adv-x="1176" d="M20 350v170h1024v-16q0 -72 -86 -117q-73 -37 -155 -37h-783z" />
<glyph unicode="&#x2014;" horiz-adv-x="2200" d="M20 350v170h2048v-16q0 -72 -173 -117q-146 -37 -310 -37h-1565z" />
<glyph unicode="&#x201a;" />
<glyph unicode="&#x201e;" />
<glyph unicode="&#x2026;" />
<glyph unicode="&#x202f;" horiz-adv-x="273" />
<glyph unicode="&#x2039;" />
<glyph unicode="&#x203a;" />
<glyph unicode="&#x205f;" horiz-adv-x="341" />
<glyph unicode="&#x2122;" />
<glyph unicode="&#x25fc;" horiz-adv-x="942" d="M0 0v942h942v-942h-942z" />
</font>
</defs>
</svg>
